/* XPM */
static char *doctree_xpm[] = {
"16 16 5 1",
"0	c #0000F8",
"1	c #000000",
"2	c #FFFFFF",
"3	c #00F400",
"4	c #2AC5CA",
"0000000000000000",
"1111122022222220",
"1333122021111120",
"1111122021111120",
"0122222022222220",
"0122222022222220",
"0121111021111120",
"0111441021111120",
"0211111022222220",
"0212222022222220",
"0212222021111220",
"0211111021111220",
"0211441022222220",
"0221111022222220",
"0222222022222220",
"0000000000000000"
};
